<svg width="512" height="512" viewBox="0 0 512 512" fill="none" xmlns="http://www.w3.org/2000/svg">
<path d="M505.978 143.941L368.053 6.015C364.426 2.299 359.239 -0.0440013 353.533 -1.26037e-06H158.467C153.315 -0.0400013 147.891 1.965 143.946 6.016L6.01346 143.95C2.30646 147.547 -0.0675352 152.856 0.00146477 158.469V353.532C-0.0655352 358.984 2.21947 364.295 5.85947 367.896L143.946 505.983C147.818 509.959 153.165 512.054 158.377 511.999H353.622C359.477 511.999 364.597 509.524 368.052 505.984L506.14 367.895C510.113 363.943 512.059 358.492 511.998 353.531V158.468C512.063 153.219 509.911 147.812 505.978 143.941ZM360.777 55.308L456.692 151.223L378.942 183.428L328.572 133.058L360.777 55.308ZM354.249 215.303V296.696L296.696 354.249H215.303L157.75 296.696V215.303L215.303 157.749H296.696L354.249 215.303ZM323.822 40L291.617 117.75H220.383L188.178 40H323.822ZM151.223 55.308L183.428 133.058L133.058 183.428L55.3085 151.223L151.223 55.308ZM40.0015 188.178L117.751 220.383V291.617L40.0015 323.822V188.178ZM151.223 456.692L55.3085 360.777L133.058 328.572L183.428 378.942L151.223 456.692ZM188.178 471.999L220.383 394.249H291.617L323.822 472L188.178 471.999ZM360.777 456.692L328.572 378.942L378.942 328.572L456.692 360.777L360.777 456.692ZM471.999 323.822L394.249 291.617V220.383L471.999 188.178V323.822Z" fill="#222222"/>
</svg>
