<svg width="472" height="512" viewBox="0 0 472 512" fill="none" xmlns="http://www.w3.org/2000/svg">
<path d="M458.946 81.245L242.946 1.245C238.465 -0.415 233.536 -0.415 229.053 1.245L13.053 81.245C5.208 84.151 0 91.634 0 100C0 345.454 138.029 477.054 229.053 510.755C233.534 512.415 238.463 512.416 242.946 510.755C302.423 488.743 472 378.354 472 100C472 91.634 466.792 84.151 458.946 81.245ZM144 400.838C71.619 322.588 42.448 219.574 40.15 113.865L144 75.402V400.838ZM288 437.594C267.239 453.802 248.419 464.578 236.079 470.271C226.281 465.705 206.914 455.553 184 437.68V60.587L236 41.328L288 60.587V437.594ZM328 400.842V75.402L431.851 113.865C429.559 219.259 400.482 322.596 328 400.842Z" fill="#222222"/>
</svg>
