<svg width="385" height="385" viewBox="0 0 385 385" fill="none" xmlns="http://www.w3.org/2000/svg">
<g clip-path="url(#clip0_4_380)">
<path d="M235.996 104.008C235.996 141.368 212.796 173.208 179.996 186.008V136.008C179.996 118.328 165.676 104.008 147.996 104.008C139.196 104.008 131.196 107.608 125.356 113.368C119.596 119.208 115.996 127.208 115.996 136.008V186.008C83.1961 173.208 59.9961 141.368 59.9961 104.008C59.9961 55.3681 99.3561 16.0081 147.996 16.0081C196.636 16.0081 235.996 55.3681 235.996 104.008Z" fill="#D0B576"/>
<path d="M300.004 208.008C291.236 208.008 282.892 210.816 276.004 216.016C269.116 210.816 260.772 208.008 252.004 208.008C243.012 208.008 234.7 210.992 228.012 216.016C218.972 209.192 206.884 206.6 196.004 208.808V196.224C230.332 178.456 252.004 143.392 252.004 104C252.004 46.656 205.348 0 148.004 0C90.6599 0 44.0039 46.656 44.0039 104C44.0039 143.392 65.6759 178.456 100.004 196.224V368.008C100.004 376.84 107.172 384.008 116.004 384.008C124.836 384.008 132.004 376.84 132.004 368.008V186.008V136.008C132.004 131.76 133.692 127.712 136.596 124.76C139.708 121.696 143.756 120.008 148.004 120.008C156.828 120.008 164.004 127.184 164.004 136.008V186.008V248.008V304.008C164.004 312.84 171.172 320.008 180.004 320.008C188.836 320.008 196.004 312.84 196.004 304.008V248.008C196.004 243.6 199.596 240.008 204.004 240.008C206.868 240.008 208.772 241.48 209.652 242.36C210.532 243.24 212.004 245.144 212.004 248.008V304.008C212.004 312.84 219.172 320.008 228.004 320.008C236.836 320.008 244.004 312.84 244.004 304.008V248.008C244.004 243.6 247.596 240.008 252.004 240.008C254.868 240.008 256.772 241.48 257.652 242.36C258.532 243.24 260.004 245.144 260.004 248.008V304.008C260.004 312.84 267.172 320.008 276.004 320.008C284.836 320.008 292.004 312.84 292.004 304.008V248.008C292.004 245.144 293.476 243.24 294.356 242.36C295.236 241.48 297.14 240.008 300.004 240.008C304.412 240.008 308.004 243.6 308.004 248.008V368.008C308.004 376.84 315.172 384.008 324.004 384.008C332.836 384.008 340.004 376.84 340.004 368.008V248.008C340.004 225.952 322.06 208.008 300.004 208.008ZM148.004 88.008C135.292 88.008 123.268 92.968 113.972 102.136C104.972 111.272 100.004 123.304 100.004 136.008V157.784C84.9559 144.424 76.0039 125.104 76.0039 104.008C76.0039 64.312 108.308 32.008 148.004 32.008C187.7 32.008 220.004 64.312 220.004 104.008C220.004 125.104 211.052 144.424 196.004 157.784V136.008C196.004 109.536 174.476 88.008 148.004 88.008Z" fill="#17181C"/>
</g>
<defs>
<clipPath id="clip0_4_380">
<rect width="384.008" height="384.008" fill="white"/>
</clipPath>
</defs>
</svg>
