<svg width="496" height="512" viewBox="0 0 496 512" fill="none" xmlns="http://www.w3.org/2000/svg">
<path d="M456.28 279.818C458.019 264.489 458.14 248.584 456.28 232.182L490.959 191.371C496.434 184.929 497.266 175.742 493.039 168.42L446.365 87.578C442.138 80.257 433.766 76.383 425.449 77.904L372.759 87.533C359.932 78.016 346.113 70.026 331.5 63.678L313.51 13.276C310.668 5.315 303.128 0 294.674 0H201.326C192.872 0 185.332 5.315 182.49 13.277L164.5 63.679C149.888 70.027 136.068 78.018 123.241 87.534L70.5508 77.905C62.2388 76.388 53.8618 80.258 49.6348 87.579L2.96078 168.421C-1.26622 175.742 -0.434224 184.93 5.04078 191.372L39.7198 232.183C37.9808 247.512 37.8598 263.417 39.7198 279.819L5.04078 320.63C-0.434224 327.072 -1.26622 336.259 2.96078 343.581L49.6348 424.423C53.8618 431.744 62.2298 435.613 70.5508 434.097L123.241 424.468C136.068 433.985 149.887 441.975 164.5 448.323L182.49 498.725C185.332 506.687 192.872 512.002 201.326 512.002H294.674C303.128 512.002 310.668 506.687 313.51 498.725L331.5 448.323C346.112 441.975 359.932 433.984 372.759 424.468L425.449 434.097C433.762 435.615 442.137 431.744 446.365 424.423L493.039 343.581C497.266 336.26 496.434 327.072 490.959 320.63L456.28 279.818ZM415.512 229.163C418.334 246.94 418.338 265.038 415.512 282.838C414.597 288.602 416.245 294.477 420.025 298.924L451.35 335.788L418.774 392.213L371.156 383.51C365.403 382.461 359.478 383.978 354.941 387.668C340.935 399.059 325.32 408.088 308.528 414.504C303.069 416.59 298.796 420.96 296.831 426.463L280.576 472H215.424L199.17 426.463C197.205 420.959 192.932 416.589 187.473 414.504C170.681 408.088 155.066 399.059 141.06 387.668C136.524 383.978 130.599 382.461 124.845 383.51L77.2268 392.213L44.6498 335.788L75.9748 298.924C79.7538 294.477 81.4028 288.602 80.4878 282.838C77.6658 265.061 77.6618 246.963 80.4878 229.163C81.4028 223.399 79.7548 217.524 75.9748 213.077L44.6498 176.212L77.2258 119.787L124.844 128.49C130.597 129.539 136.522 128.022 141.059 124.332C155.065 112.941 170.68 103.912 187.472 97.496C192.931 95.41 197.204 91.04 199.169 85.537L215.424 40H280.576L296.83 85.537C298.795 91.041 303.068 95.411 308.527 97.496C325.319 103.912 340.934 112.941 354.94 124.332C359.476 128.022 365.405 129.541 371.155 128.49L418.773 119.787L451.349 176.212L420.024 213.076C416.245 217.523 414.597 223.399 415.512 229.163V229.163ZM248 156C192.859 156 148 200.86 148 256C148 311.14 192.859 356 248 356C303.141 356 348 311.14 348 256C348 200.86 303.141 156 248 156ZM248 316C214.916 316 188 289.084 188 256C188 222.916 214.916 196 248 196C281.084 196 308 222.916 308 256C308 289.084 281.084 316 248 316ZM273 256C273 269.807 261.807 281 248 281C234.193 281 223 269.807 223 256C223 242.193 234.193 231 248 231C261.807 231 273 242.193 273 256Z" fill="#222222"/>
</svg>
