<svg width="512" height="348" viewBox="0 0 512 348" fill="none" xmlns="http://www.w3.org/2000/svg">
<path d="M460.195 129.571V89.117C460.195 39.978 420.237 0 371.122 0H140.878C91.763 0 51.805 39.978 51.805 89.117V129.571C21.916 138.26 0 165.885 0 198.552V307.987C0 319.033 8.954 327.987 20 327.987H51.805V328C51.805 339.046 60.759 348 71.805 348C82.851 348 91.805 339.046 91.805 328V327.987H420.196V328C420.196 339.046 429.15 348 440.196 348C451.242 348 460.196 339.046 460.196 328V327.987H492C503.046 327.987 512 319.033 512 307.987V198.552C512 165.885 490.084 138.26 460.195 129.571ZM91.804 89.117C91.805 62.034 113.82 40 140.878 40H371.122C398.181 40 420.195 62.034 420.195 89.117V129.549C394.633 136.976 375.077 158.195 369.807 184.312H142.192C137.045 158.802 117.886 137.128 91.804 129.549V89.117ZM472 287.987H40V198.552C40 180.996 54.268 166.714 71.805 166.714C89.342 166.714 103.61 180.996 103.61 198.552V204.312C103.61 215.358 112.564 224.312 123.61 224.312H388.391C399.437 224.312 408.391 215.358 408.391 204.312V198.552C408.391 180.996 422.659 166.714 440.196 166.714C457.733 166.714 472 180.997 472 198.552V287.987Z" fill="#222222"/>
</svg>
